<svg id="Layer_1" data-name="Layer 1" xmlns="http://www.w3.org/2000/svg" viewBox="0 0 450.4 203.15"><defs><style>.cls-1{fill:#fdfdfd;}</style></defs><path class="cls-1" d="M97,287.71c1.52,0,2.55,0,3.58,0,18.65.58,37.35.5,55.94,1.95,18.37,1.44,36.74,3.78,54.91,6.89,22.08,3.79,39.9,15.69,54.91,32,1.9,2.07,3.72,4.22,5.57,6.32,1.61-6.87,3.2-13.6,4.91-20.9,3.32,2.86,6,5.27,8.76,7.52,4.14,3.36,8.38,6.59,12.56,9.9,3.46,2.73,7.2,2.33,11.56,1.1L306.76,330c-12.39-10.57-24.59-21.31-34.05-34.75-1.38-2-2.67-4-3.89-6-3.8-6.45-1.12-12.44,6.43-14.05,3.15,8.25,8.38,15.2,14,21.77,21.95-15,43.61-15.07,65.61,0,5.6-6.31,10.72-13.13,13.91-21.37a7.42,7.42,0,0,1,6.84,3.77c1.88,2.92,2.19,6.21.18,9.05-4.61,6.5-9,13.31-14.43,19.06-7.57,8-16,15.08-24.13,22.55-.83.77-1.71,1.49-2.84,2.47,4.35,1.33,8.22,1.71,11.7-1.11,6.62-5.37,13.18-10.81,19.77-16.22.26-.21.55-.38,1.53-1l4.88,20.82c.51-.57,1.12-1.25,1.71-1.94,14.27-16.89,31.34-29.77,53.09-35.08a293.84,293.84,0,0,1,33.28-5.67,612.83,612.83,0,0,1,71.52-4.53c4.94,0,9.89,0,14.83,0l.64.74c-4.63,7.1-8.89,14.48-14,21.25-9.63,12.86-22.28,22-36.94,28.5a6.45,6.45,0,0,0-2.89,2.79c-7.25,14.45-17.31,26.16-32.12,33.32-7.93,3.83-16.37,5.7-25.05,6.8A6.61,6.61,0,0,0,433,383c-4.46,4.43-8.36,9.55-13.29,13.36-11.8,9.1-25.13,9.55-38.63,4.48-6.94-2.61-13.47-6.31-20.18-9.54-.79-.38-1.53-.85-2.55-1.43L352,399.62c.43.46.85,1,1.35,1.44,5.08,4.46,10.12,8.95,15.27,13.32,11.37,9.69,12.36,22.85,2.14,33.8a50.85,50.85,0,0,1-10.3,8.35c-11.15,7-22.5,13.6-33.78,20.35a8.67,8.67,0,0,1-9.57,0c-11.17-6.74-22.45-13.33-33.47-20.33a51.23,51.23,0,0,1-11.14-9.39c-9.46-10.92-8-23.69,3.1-33,5.51-4.59,10.85-9.4,16.35-14.18l-6.26-9.82c-5.38,2.75-10.47,5.88-15.95,8a91.43,91.43,0,0,1-18,5.23c-11.91,2-22.29-2-31.05-10-3.45-3.16-6.28-7-9.52-10.39a6.18,6.18,0,0,0-3.38-1.94c-15.52-1.71-29.49-6.9-41-17.78A80,80,0,0,1,150.58,341a6.37,6.37,0,0,0-2.87-2.8c-20-8.72-35.19-22.75-45.88-41.71C100.27,293.7,98.74,290.93,97,287.71Zm225.08,69c-3.22-4.09-6-7.42-8.52-10.91-.77-1-1.18-1.62-2.67-1.26-8.4,2-16,.48-22.51-5.46-1.13-1-2.45-1.85-4-3a72.28,72.28,0,0,0,1.19,20.61c4.43,20.63,15.39,37.57,29.88,52.45,3.88,4,9.29,4.06,12.94-.17,5.95-6.91,11.94-13.88,17-21.42a82.56,82.56,0,0,0,14.31-39.05c.36-4,.05-8,.05-12.53-1.85,1.43-3.3,2.44-4.62,3.61-6.31,5.62-13.66,6.84-21.64,5-1.72-.39-2.17.22-3,1.43C328,349.48,325.23,352.71,322,356.73Zm144-53c-1.09.05-2,0-2.83.15-7.11,1-14.2,2.09-21.32,3.06a87.33,87.33,0,0,0-48.29,22.75c-.66.62-1.27,1.29-2.15,2.18,2.25.4,4,.77,5.73,1,11.41,1.64,22.75,3.49,34.4,1.89C449,332.44,462.25,320.8,466.05,303.76ZM252.68,332a14.59,14.59,0,0,0-1.12-1.37,89.07,89.07,0,0,0-31.46-19.43c-10.45-3.64-21.41-4.8-32.27-6.39-3.18-.47-6.39-.78-9.91-1.2,4.24,14.86,12.59,25.18,27.35,29.5,10,2.92,20.12,2.85,30.32,1.39C241.16,333.73,246.72,332.9,252.68,332Zm273.19-32.22c-1.16,0-1.59,0-2,0-13.91.76-27.82,1.61-41.74,2.19-2.62.11-3.33,1.11-3.9,3.41-2.37,9.5-6.4,18.21-13.14,25.48-1.25,1.35-2.55,2.65-4.19,4.35C487.14,331.65,509.39,321.79,525.87,299.81ZM183,335.2c-.22-.46-.27-.76-.45-.91-9.06-8.12-14.16-18.46-16.86-30.14a2.29,2.29,0,0,0-2.51-2c-9.66-.56-19.3-1.37-29-1.86-5.09-.26-10.19-.05-15.62-.05C134.75,321.77,157,331.65,183,335.2ZM343.15,453.08c-4.87-7.08-9.38-14-14.27-20.62-3.41-4.64-9.88-4.53-13.61-.11a46.84,46.84,0,0,0-2.78,3.91L301,453.13c6,3.56,11.54,7.19,17.43,10.24a8.28,8.28,0,0,0,6.58.15C331.17,460.4,337,456.68,343.15,453.08ZM297.87,306.37,322,327.21l24.33-20.95C334.48,295.14,308.62,295.22,297.87,306.37Zm-80.52,42.37c3.13,5.85,7.57,10.29,13.89,12.69,7.78,3,15.74,2.43,23.62.8,5.84-1.21,11.55-3,18.09-4.75-3.34-4.86-6.26-9-9-13.15-1.07-1.64-2.31-1.87-4.05-1.49-2.69.58-5.39,1.1-8.12,1.46C240.45,345.8,229.11,347.23,217.35,348.74Zm154.19,8.19c8,3.87,23.36,7,31.41,6.52,9.54-.53,17.3-4.27,22.58-12.49.49-.76.85-1.6,1.38-2.59-4.84-.45-9.27-.69-13.64-1.29-9.84-1.34-19.65-2.89-29.48-4.27-.91-.12-2.37.07-2.81.67C377.77,347.81,374.77,352.28,371.54,356.93Zm47.35,24.12c-18-1.47-34.65-6.36-51.07-12.14-1.23,3.13-2.41,5.9-3.38,8.74a2.32,2.32,0,0,0,.64,2.11c8.72,5.36,17.66,10.35,28,11.87S411.66,389,418.89,381.05Zm-193.62,0c5.66,6.06,11.72,10.32,19.73,10.7,13.34.63,24.06-6.2,35.1-12.51l-4-10.36C259.64,374.85,243.08,379.5,225.27,381.09Zm-6.15-11.72c-.16-.48-.17-.7-.28-.78-6.63-4.72-11.07-11.12-14.4-18.45a3.55,3.55,0,0,0-2.57-1.52c-8.2-.8-16.42-1.37-24.62-2.2-3.39-.34-6.73-1.16-10.62-1.86C179.6,363.14,197.56,369.79,219.12,369.37Zm206-.28c21.45.68,39.43-5.92,52.35-24.43l-2.67.32c-9.4,1.17-18.78,2.77-28.21,3.34-4.47.26-7.05,1.13-8.88,5.52C435.1,360,430.52,364.94,425.1,369.09Zm-80.6,40.29-9.5,10.3,18.77,27.68c3.39-3.16,6.8-5.76,9.47-9q5.81-7-.84-13.24C356.67,419.75,350.59,414.71,344.5,409.38Zm-53.75,37.46,18.2-26.9-9.63-10.36c-2,1.8-4,3.55-6,5.29-3.55,3.09-7.14,6.13-10.67,9.25-4.4,3.91-5.46,8-3.11,12.26C282.07,441.05,286.16,444.09,290.75,446.84Z" transform="translate(-96.95 -275.17)"/></svg>